<?xml version="1.0" encoding="UTF-8"?>
<svg id="Layer_1" data-name="Layer 1" xmlns="http://www.w3.org/2000/svg" viewBox="0 0 1140.44 295.91">
  <defs>
    <style>
      .cls-1, .cls-2 {
        stroke-width: 0px;
      }

      .cls-2 {
        fill: #eb2028;
      }
    </style>
  </defs>
  <g>
    <path class="cls-2" d="M806.99,34.22l-21.6,37.22-23.6,6.07,4.49-7.64,17.2-29.66-24.84-14.96-12.05-7.31,23.6-6.07,9.97,6.07h.08l8.89,5.48,17.86,10.8Z"/>
    <path class="cls-2" d="M806.99,34.22l-21.6,37.22-23.6,6.07,4.49-7.64,17.2-29.66-24.84-14.96-12.05-7.31,23.6-6.07,9.97,6.07h.08l8.89,5.48,17.86,10.8Z"/>
    <path class="cls-2" d="M750.07,29.73c-34.9,20.44-56.75,58.66-68.21,81.59h-1.41c2.41-16.87,3.74-32.74,5.15-48.19h-47.28c-2.83,20.61-5.57,55.25-11.71,87.49l-26.67,140.5h54.34l17.28-91.81c7.56-41.46,42.95-109.84,83.17-126.29h.08l17.45-29.91-22.18-13.38ZM780.23,17.93h-.08c-7.65,1.66-14.79,4.15-21.52,7.31l24.84,14.96-17.2,29.66c3.32-.58,6.56-.66,9.89-.33l12.96-46.11-8.89-5.48Z"/>
  </g>
  <path class="cls-1" d="M103.94,0l-11.7,62.74h51.5l-8.43,42.14h-51.03l-18.26,92.23c-1.87,10.78-3.74,22.48-3.74,32.31,0,12.17,5.62,20.13,20.13,20.13,6.55,0,13.11,0,18.73-.93l-5.15,42.61c-7.96,2.81-22.47,4.68-35.58,4.68-37.46,0-54.31-20.6-54.31-46.83,0-13.1,1.41-25.75,5.15-42.61l19.66-101.59H0l7.96-42.14h30.9l9.36-49.16L103.94,0Z"/>
  <path class="cls-1" d="M356.6,152.17c0,77.25-54.31,143.74-132.03,143.74-57.59,0-93.17-39.8-93.17-94.11,0-77.25,53.84-144.2,131.56-144.2,61.33,0,93.64,44.01,93.64,94.58ZM187.58,200.39c0,31.37,16.85,53.37,44.48,53.37,40.74,0,67.89-56.18,67.89-101.59,0-23.41-10.3-52.44-43.54-52.44-43.54,0-68.82,58.05-68.82,100.66Z"/>
  <path class="cls-1" d="M603.17,62.74l-29.96,157.31c-5.15,27.16-8.43,51.03-11.24,70.7h-48.22l4.68-39.8h-.93c-22.01,29.5-50.57,44.95-79.13,44.95-33.24,0-59.46-17.79-59.46-64.61,0-12.18,1.41-25.28,4.68-40.73l24.35-127.82h54.31l-23.41,124.54c-2.34,11.23-3.74,22.47-3.74,31.37,0,18.73,7.49,32.3,29.03,32.3,25.28,0,54.78-29.96,63.67-77.25l21.07-110.96h54.31Z"/>
  <path class="cls-1" d="M882.41,290.75c.47-13.57,2.34-31.84,4.22-51.5h-1.4c-22.48,42.14-52.44,56.65-81.47,56.65-40.73,0-67.42-31.84-67.42-77.72,0-77.72,54.31-160.59,160.59-160.59,24.81,0,51.5,4.68,68.82,10.3l-23.41,118.93c-6.56,34.18-10.3,76.78-9.36,103.94h-50.57ZM904.88,102.07c-5.62-1.4-12.64-2.34-22.48-2.34-50.57,0-89.42,56.65-89.42,108.62,0,23.88,8.89,43.55,32.77,43.55,25.28,0,56.18-31.84,66.95-89.89l12.17-59.93Z"/>
  <path class="cls-1" d="M979.38,239.72c11.7,6.56,34.18,15.46,54.78,15.46,22-.47,35.11-13.11,35.11-28.1s-7.49-23.41-29.96-35.11c-26.22-13.58-44.95-33.24-44.95-59.47,0-44.01,38.39-74.91,92.23-74.91,23.88,0,43.54,5.61,53.84,11.7l-14.05,39.33c-8.43-4.68-23.88-10.3-42.61-10.3-20.6,0-34.65,11.24-34.65,26.69,0,12.64,10.3,21.53,29.49,31.37,24.82,13.58,47.29,32.31,47.29,61.33,0,50.1-42.14,77.72-96.92,77.72-26.69,0-51.5-7.49-63.67-16.39l14.05-39.33Z"/>
</svg>