<svg xmlns="http://www.w3.org/2000/svg" version="1.1" xmlns:xlink="http://www.w3.org/1999/xlink" xmlns:svgjs="http://svgjs.dev/svgjs" viewBox="0 0 600 600"><path d="M288.4776652648411 324.0921927122515C243.0866003030898 324.96509717188695 130.4818360005182 178.31704622787652 153.35194810175517 148.11453157943902C176.22206020299214 117.91201693100152 403.17738501174864 113.54749463282444 425.698337872263 142.87710482162652C448.2192907327773 172.2067150104286 333.8687302265924 323.2192882526161 288.4776652648411 324.0921927122515C243.0866003030898 324.96509717188695 130.4818360005182 178.31704622787652 153.35194810175517 148.11453157943902 " fill="hsl(340, 45%, 50%)"></path><path d="M48.60336474642497 268.57542294541526C3.212299784673661 269.44832740505075 -109.39246451789793 122.80027646104031 -86.52235241666096 92.59776181260281C-63.652240315423995 62.39524716416531 163.3030844933325 58.03072486598822 185.82403735384685 87.36033505479031C208.3449902143612 116.6899452435924 93.99442970817626 267.7025184857799 48.60336474642497 268.57542294541526C3.212299784673661 269.44832740505075 -109.39246451789793 122.80027646104031 -86.52235241666096 92.59776181260281 " fill-opacity="1" fill="hsl(340, 45%, 50%)" opacity="1" stroke-opacity="1" stroke-width="0" stroke="hsl(340, 45%, 30%)" transform="matrix(-0.992518734375,-5.623153496245905e-16,5.623153496245905e-16,-0.992518734375,349.2175162288112,466.7873621339876)"></path></svg>