<svg xmlns="http://www.w3.org/2000/svg" version="1.1" xmlns:xlink="http://www.w3.org/1999/xlink" xmlns:svgjs="http://svgjs.dev/svgjs" viewBox="0 0 800 800" opacity="0.48"><defs><filter id="bbburst-blur-1" x="-100%" y="-100%" width="400%" height="400%"><feGaussianBlur in="SourceGraphic" stdDeviation="1"></feGaussianBlur></filter><filter id="bbburst-blur-2" x="-100%" y="-100%" width="400%" height="400%"><feGaussianBlur in="SourceGraphic" stdDeviation="2"></feGaussianBlur></filter><filter id="bbburst-blur-3" x="-100%" y="-100%" width="400%" height="400%"><feGaussianBlur in="SourceGraphic" stdDeviation="4"></feGaussianBlur></filter><filter id="bbburst-blur-4" x="-100%" y="-100%" width="400%" height="400%"><feGaussianBlur in="SourceGraphic" stdDeviation="12"></feGaussianBlur></filter><symbol id="bbburst-shape-1" viewBox="0 0 194 167"><path d="m97 0 96.129 166.5H.871L97 0Z"></path></symbol><symbol id="bbburst-shape-2" viewBox="0 0 126 115"><path d="m63 0 62.77 43.877-23.976 70.996H24.206L.23 43.877 63 0Z"></path></symbol><symbol id="bbburst-shape-3" viewBox="0 0 131 127"><path d="m66 0 66 63.5L66 127 0 63.5 66 0Z"></path></symbol><symbol id="bbburst-shape-4" viewBox="0 0 149 143"><path d="M71.647 2.781c.898-2.764 4.808-2.764 5.706 0l15.445 47.534a3 3 0 0 0 2.853 2.073h49.98c2.906 0 4.115 3.719 1.764 5.427L106.96 87.193a2.999 2.999 0 0 0-1.09 3.354l15.445 47.534c.898 2.764-2.266 5.062-4.617 3.354l-40.435-29.378a3 3 0 0 0-3.526 0l-40.435 29.378c-2.351 1.708-5.515-.59-4.617-3.354L43.13 90.547a3 3 0 0 0-1.09-3.354L1.605 57.815c-2.35-1.708-1.142-5.427 1.764-5.427h49.98a3 3 0 0 0 2.853-2.073L71.647 2.781Z"></path></symbol><symbol id="bbburst-shape-6" viewBox="0 0 133 116"><path d="M59.7487 10.2513c-13.6683-13.66839-35.8291-13.66839-49.4974 0-13.66839 13.6683-13.66839 35.8291 0 49.4974l49.4974-49.4974ZM66.5 66.5 41.7513 91.2487 66.5 115.997l24.7487-24.7483L66.5 66.5Zm56.249-6.7513c13.668-13.6683 13.668-35.8291 0-49.4974-13.669-13.66839-35.8294-13.66839-49.4977 0l49.4977 49.4974Zm-112.4977 0 31.5 31.5 49.4974-49.4974-31.5-31.5-49.4974 49.4974Zm80.9974 31.5 31.5003-31.5-49.4977-49.4974-31.5 31.5 49.4974 49.4974Z"></path></symbol><symbol id="bbburst-shape-8" viewBox="0 0 87 168"><path d="m12 12 31.2546 18.0749c16.4102 9.4902 20.014 31.6325 7.4603 45.8369L36.3296 92.1884c-12.5684 14.2206-8.9394 36.3916 7.5068 45.8636L75 156" stroke-width="14" stroke-linecap="round" stroke-linejoin="round"></path></symbol><symbol id="bbburst-shape-10" viewBox="0 0 145 145"><circle cx="72.5" cy="72.5" r="61.5" fill="none" stroke-width="22"></circle></symbol></defs><use xlink:href="#bbburst-shape-2" width="74.22919936116304" opacity="0.4362722342762446" transform="matrix(0.9815454899959823,0.19122879246741809,-0.19122879246741809,0.9815454899959823,443.9269319803852,-6.389889013786387)" fill="#2c2891" filter="url(#bbburst-blur-2)"></use><use xlink:href="#bbburst-shape-10" width="16.35212978514798" opacity="0.9653194776091761" transform="matrix(0.9100260502487939,0.41455106786568474,-0.41455106786568474,0.9100260502487939,185.59641373442966,-345.90548730476615)" fill="none" stroke="#2c2891"></use><use xlink:href="#bbburst-shape-4" width="24.24440686180368" opacity="0.87200789481266" transform="matrix(0.8467246428612232,0.5320313704769054,-0.5320313704769054,0.8467246428612232,262.09852042328953,-231.83179259968358)" fill="#00a19d"></use><use xlink:href="#bbburst-shape-6" width="52.56798052615463" opacity="0.35416073030996953" transform="matrix(0.9078702130600641,-0.4192513282486697,0.4192513282486697,0.9078702130600641,-108.05443726645524,288.28966055497193)" fill="#ffa6d5" filter="url(#bbburst-blur-2)"></use><use xlink:href="#bbburst-shape-2" width="36.8713559001942" opacity="0.8097321842206304" transform="matrix(0.7699063424337916,-0.6381568959748231,0.6381568959748231,0.7699063424337916,-228.24708296936421,-110.42921695720486)" fill="#2c2891"></use><use xlink:href="#bbburst-shape-1" width="47.899987813203026" opacity="0.5989526318212455" transform="matrix(0.8137017603342018,-0.5812825863803432,0.5812825863803432,0.8137017603342018,-34.632327721379426,25.54520421459199)" fill="#00a19d" filter="url(#bbburst-blur-1)"></use><use xlink:href="#bbburst-shape-8" width="32.19460050682091" opacity="0.8453656633122644" transform="matrix(0.8838336063020981,0.4678014069784613,-0.4678014069784613,0.8838336063020981,316.5856299376911,-303.929976746653)" fill="none" stroke="#ffa6d5"></use><use xlink:href="#bbburst-shape-4" width="59.05468856067286" opacity="0.4938060038608014" transform="matrix(0.8971820714999055,-0.4416608773472453,0.4416608773472453,0.8971820714999055,-126.32868305727649,154.54985396190636)" fill="#00a19d" filter="url(#bbburst-blur-1)"></use><use xlink:href="#bbburst-shape-6" width="41.920852653675624" opacity="0.6076435127127549" transform="matrix(0.9729851436070671,-0.2308677333884817,0.2308677333884817,0.9729851436070671,-32.264103599345134,-0.3401158109239759)" fill="#00a19d" filter="url(#bbburst-blur-1)"></use><use xlink:href="#bbburst-shape-10" width="27.93867795127883" opacity="0.6917017865460069" transform="matrix(0.9174993920886495,0.3977371814615257,-0.3977371814615257,0.9174993920886495,171.97559630631207,-65.33052612609919)" fill="none" stroke="#ffa6d5"></use><use xlink:href="#bbburst-shape-10" width="50.2825984966804" opacity="0.5251267626670054" transform="matrix(0.7460873825475681,-0.6658480439284318,0.6658480439284318,0.7460873825475681,185.27726083140266,-216.48108977602766)" fill="none" stroke="#2c2891" filter="url(#bbburst-blur-1)"></use><use xlink:href="#bbburst-shape-4" width="52.58678382106142" opacity="0.37581996831424636" transform="matrix(0.9732501268904017,-0.22974810229426726,0.22974810229426726,0.9732501268904017,501.22670408852855,-300.72209514275147)" fill="#00a19d" filter="url(#bbburst-blur-2)"></use><use xlink:href="#bbburst-shape-6" width="70.23316127083335" opacity="0.1543449855863568" transform="matrix(0.7799571397757172,-0.6258329330683088,0.6258329330683088,0.7799571397757172,167.74968508833973,428.8045111530373)" fill="#ffbd9b" filter="url(#bbburst-blur-3)"></use><use xlink:href="#bbburst-shape-10" width="17.11393213360475" opacity="0.923008746487812" transform="matrix(0.931233065260642,0.3644241734095981,-0.3644241734095981,0.931233065260642,162.8770695363415,-302.8183739212243)" fill="none" stroke="#ffa6d5"></use><use xlink:href="#bbburst-shape-10" width="75.9340607623439" opacity="0.32776979662281835" transform="matrix(0.9102057815655515,-0.4141562932090293,0.4141562932090293,0.9102057815655515,118.25152859780124,243.64629764436268)" fill="none" stroke="#2c2891" filter="url(#bbburst-blur-2)"></use><use xlink:href="#bbburst-shape-6" width="89.95440093579012" opacity="0.24863792612578017" transform="matrix(0.9328576227168057,-0.3602452716402391,0.3602452716402391,0.9328576227168057,348.89447500211486,170.67228608867453)" fill="#2c2891" filter="url(#bbburst-blur-3)"></use><use xlink:href="#bbburst-shape-3" width="66.8987045041327" opacity="0.15603113027324478" transform="matrix(0.9102278869743803,0.4141077079385928,-0.4141077079385928,0.9102278869743803,855.5937955267734,61.24221143179267)" fill="#ffa6d5" filter="url(#bbburst-blur-3)"></use><use xlink:href="#bbburst-shape-6" width="31.47874757948176" opacity="0.7932561180079551" transform="matrix(0.9200132210035371,0.3918873220438456,-0.3918873220438456,0.9200132210035371,282.31677238913267,-222.08369819620177)" fill="#ffa6d5"></use><use xlink:href="#bbburst-shape-2" width="42.82119929794015" opacity="0.6970067371009528" transform="matrix(0.973509326362548,-0.22864730806449046,0.22864730806449046,0.973509326362548,85.3679965018743,-154.8499174149385)" fill="#ffa6d5"></use><use xlink:href="#bbburst-shape-6" width="21.175932365767306" opacity="0.9092525455876593" transform="matrix(0.7306863936094722,-0.6827132591315211,0.6827132591315211,0.7306863936094722,-196.17248301910382,-252.34074418710014)" fill="#ffbd9b"></use><use xlink:href="#bbburst-shape-8" width="43.87198162970896" opacity="0.5877839170045922" transform="matrix(0.9852228120903372,0.17127758328750461,-0.17127758328750461,0.9852228120903372,378.9670800671717,-153.6066074559423)" fill="none" stroke="#ffa6d5" filter="url(#bbburst-blur-1)"></use><use xlink:href="#bbburst-shape-1" width="37.255616903813596" opacity="0.6458242707122642" transform="matrix(0.999312934922835,-0.03706289378758447,0.03706289378758447,0.999312934922835,313.0376593370338,-325.53746879502387)" fill="#2c2891" filter="url(#bbburst-blur-1)"></use><use xlink:href="#bbburst-shape-4" width="49.03899244038221" opacity="0.7223555363859373" transform="matrix(0.8165329452796906,0.5772988387939767,-0.5772988387939767,0.8165329452796906,302.1982952760518,-78.5371669969723)" fill="#2c2891"></use><use xlink:href="#bbburst-shape-4" width="90.67457579459818" opacity="0.02712477637458721" transform="matrix(0.9465241014898468,0.3226331125269666,-0.3226331125269666,0.9465241014898468,774.7512189175455,294.0559993048516)" fill="#2c2891" filter="url(#bbburst-blur-3)"></use><use xlink:href="#bbburst-shape-4" width="36.86011917669915" opacity="0.7102730530950923" transform="matrix(0.9630900468137151,0.2691794229289377,-0.2691794229289377,0.9630900468137151,344.42466279965333,-251.72538101817025)" fill="#ffa6d5"></use><use xlink:href="#bbburst-shape-4" width="67.20296833854317" opacity="0.4858936542403687" transform="matrix(0.9564558140288512,0.29187715876787557,-0.29187715876787557,0.9564558140288512,553.7793170028208,-182.16242614921467)" fill="#ffa6d5" filter="url(#bbburst-blur-1)"></use><use xlink:href="#bbburst-shape-2" width="58.503172167219645" opacity="0.24514149668208274" transform="matrix(0.9998693001154153,0.016167333939442946,-0.016167333939442946,0.9998693001154153,715.2184509890304,-241.74786513902976)" fill="#2c2891" filter="url(#bbburst-blur-3)"></use><use xlink:href="#bbburst-shape-10" width="66.1611659750042" opacity="0.3289426115834053" transform="matrix(0.9999188020055138,-0.012743209794171002,0.012743209794171002,0.9999188020055138,558.5813432138109,-92.62635276406508)" fill="none" stroke="#ff5c58" filter="url(#bbburst-blur-2)"></use><use xlink:href="#bbburst-shape-6" width="65.64620458177816" opacity="0.47813680047919915" transform="matrix(0.7971927428542838,-0.603724880007826,0.603724880007826,0.7971927428542838,-36.53128092485454,168.83130031510768)" fill="#ffa6d5" filter="url(#bbburst-blur-1)"></use><use xlink:href="#bbburst-shape-6" width="28.497630812447728" opacity="0.7670650711229711" transform="matrix(0.7833016501572593,-0.621641797871503,0.621641797871503,0.7833016501572593,-30.714011071752736,-262.38885686869423)" fill="#00a19d"></use><use xlink:href="#bbburst-shape-8" width="55.60817610951184" opacity="0.24033136885097606" transform="matrix(0.7377659991706786,0.6750565387193063,-0.6750565387193063,0.7377659991706786,426.10533645771034,424.98176402090485)" fill="none" stroke="#00a19d" filter="url(#bbburst-blur-3)"></use></svg>